<?xml version="1.0" encoding="utf-8"?>
<!-- Generator: Adobe Illustrator 15.1.0, SVG Export Plug-In . SVG Version: 6.00 Build 0)  -->
<!DOCTYPE svg PUBLIC "-//W3C//DTD SVG 1.1//EN" "http://www.w3.org/Graphics/SVG/1.1/DTD/svg11.dtd">
<svg version="1.1" id="Layer_2" xmlns="http://www.w3.org/2000/svg" xmlns:xlink="http://www.w3.org/1999/xlink" x="0px" y="0px"
	 width="840.701px" height="249.73px" viewBox="0 0 840.701 249.73" enable-background="new 0 0 840.701 249.73"
	 xml:space="preserve">
<g>
	<g>
		<g>
			<path fill="#838AA7" d="M2.225,138.606c1.424,4.892,3.313,9.586,5.67,13.997l-0.012,0.007l0.082,0.137
				c1.059,1.978,2.213,3.894,3.445,5.758l61.158,85.401v-63.455L2.225,138.606z"/>
			<path fill="#282138" d="M72.568,180.451v63.455l61.156-85.401c1.232-1.864,2.387-3.78,3.445-5.758l0.082-0.137l-0.01-0.007
				c2.357-4.411,4.246-9.105,5.668-13.997L72.568,180.451z"/>
		</g>
		<polygon fill="#282138" points="72.564,5.824 72.564,98.031 113.422,73.724 		"/>
		<path fill="#282138" d="M119.619,84.024l-1.166-1.947L94.459,96.352l-21.891,34.217L72.564,169.6l72.563-43.171L119.619,84.024z
			 M90.838,138.973l20.643-32.086l8.105,14.34L90.838,138.973z"/>
		<polygon fill="#838AA7" points="72.564,169.6 0.002,126.429 25.51,84.024 26.676,82.077 50.664,96.348 72.555,130.567 		"/>
		<polygon fill="#838AA7" points="72.564,98.031 72.564,5.824 31.717,73.735 		"/>
	</g>
	<g>
		<g>
			<path fill="#838AA7" d="M223.422,128.835h-31.057v28.803h34.611v8.654h-44.924V86.401h43.146v8.654h-32.834v25.247h31.057
				V128.835z"/>
			<path fill="#838AA7" d="M252.223,92.446v16.478h14.934v7.94h-14.934V147.8c0,7.112,2.012,11.144,7.82,11.144
				c2.729,0,4.744-0.356,6.045-0.712l0.477,7.822c-2.016,0.829-5.217,1.424-9.246,1.424c-4.861,0-8.773-1.542-11.262-4.386
				c-2.963-3.082-4.029-8.18-4.029-14.935v-31.294h-8.891v-7.94h8.891V95.174L252.223,92.446z"/>
			<path fill="#838AA7" d="M278.889,82.134h10.432v35.797h0.236c1.658-2.962,4.266-5.572,7.467-7.35
				c3.082-1.777,6.758-2.964,10.668-2.964c7.705,0,20.031,4.741,20.031,24.536v34.139h-10.43v-32.954
				c0-9.242-3.438-17.066-13.275-17.066c-6.756,0-12.092,4.741-13.988,10.431c-0.592,1.422-0.709,2.963-0.709,4.979v34.611h-10.432
				V82.134z"/>
			<path fill="#838AA7" d="M350.48,139.503c0.234,14.104,9.244,19.912,19.674,19.912c7.469,0,11.973-1.303,15.885-2.963l1.777,7.468
				c-3.674,1.659-9.957,3.558-19.082,3.558c-17.662,0-28.213-11.616-28.213-28.922c0-17.307,10.193-30.938,26.908-30.938
				c18.729,0,23.705,16.479,23.705,27.027c0,2.132-0.236,3.792-0.355,4.858H350.48z M381.061,132.036
				c0.119-6.637-2.727-16.948-14.461-16.948c-10.549,0-15.172,9.718-16,16.948H381.061z"/>
			<path fill="#838AA7" d="M404.053,126.822c0-6.758-0.119-12.565-0.477-17.898h9.129l0.355,11.26h0.473
				c2.607-7.705,8.891-12.565,15.885-12.565c1.186,0,2.016,0.119,2.965,0.355v9.84c-1.068-0.237-2.137-0.356-3.557-0.356
				c-7.35,0-12.566,5.57-13.988,13.395c-0.236,1.422-0.475,3.081-0.475,4.859v30.582h-10.311V126.822z"/>
			<path fill="#282138" d="M441.744,153.727c4.621,2.845,11.377,5.217,18.49,5.217c10.551,0,16.713-5.572,16.713-13.631
				c0-7.468-4.268-11.736-15.053-15.886c-13.039-4.622-21.1-11.377-21.1-22.638c0-12.446,10.313-21.692,25.838-21.692
				c8.182,0,14.105,1.897,17.664,3.913l-2.844,8.414c-2.611-1.422-7.943-3.791-15.174-3.791c-10.904,0-15.053,6.517-15.053,11.971
				c0,7.468,4.859,11.141,15.883,15.409c13.512,5.214,20.387,11.734,20.387,23.468c0,12.328-9.127,22.997-27.975,22.997
				c-7.705,0-16.119-2.254-20.385-5.099L441.744,153.727z"/>
			<path fill="#282138" d="M542.848,164.158c-2.725,1.422-8.773,3.32-16.477,3.32c-17.307,0-28.566-11.734-28.566-29.279
				c0-17.66,12.09-30.462,30.818-30.462c6.162,0,11.615,1.54,14.463,2.962l-2.373,8.062c-2.488-1.422-6.4-2.726-12.09-2.726
				c-13.156,0-20.27,9.718-20.27,21.691c0,13.275,8.535,21.453,19.912,21.453c5.928,0,9.84-1.541,12.805-2.845L542.848,164.158z"/>
			<path fill="#282138" d="M586.82,166.292l-0.828-7.23h-0.357c-3.199,4.505-9.363,8.533-17.543,8.533
				c-11.615,0-17.541-8.18-17.541-16.475c0-13.869,12.326-21.455,34.49-21.336v-1.186c0-4.741-1.303-13.276-13.035-13.276
				c-5.338,0-10.906,1.659-14.936,4.269l-2.371-6.876c4.74-3.081,11.613-5.098,18.846-5.098c17.543,0,21.809,11.974,21.809,23.471
				v21.454c0,4.979,0.236,9.837,0.949,13.75H586.82z M585.279,137.014c-11.379-0.237-24.299,1.778-24.299,12.921
				c0,6.756,4.504,9.956,9.84,9.956c7.467,0,12.205-4.742,13.865-9.602c0.355-1.065,0.594-2.251,0.594-3.319V137.014z"/>
			<path fill="#282138" d="M612.184,124.45c0-5.927-0.119-10.787-0.477-15.526h9.129l0.473,9.243h0.357
				c3.201-5.451,8.533-10.549,18.016-10.549c7.824,0,13.75,4.741,16.238,11.499h0.238c1.777-3.2,4.029-5.689,6.4-7.467
				c3.436-2.61,7.23-4.032,12.682-4.032c7.586,0,18.848,4.979,18.848,24.893v33.782h-10.193v-32.479
				c0-11.024-4.033-17.661-12.447-17.661c-5.926,0-10.549,4.386-12.326,9.483c-0.477,1.422-0.83,3.316-0.83,5.215v35.441h-10.195
				v-34.376c0-9.127-4.027-15.764-11.971-15.764c-6.52,0-11.258,5.215-12.918,10.431c-0.594,1.541-0.832,3.32-0.832,5.098v34.611
				h-10.191V124.45z"/>
			<path fill="#838AA7" d="M711.391,87.469c6.281-0.95,13.748-1.66,21.926-1.66c14.818,0,25.369,3.438,32.359,9.956
				c7.111,6.52,11.264,15.766,11.264,28.685c0,13.04-4.033,23.708-11.502,31.056c-7.467,7.468-19.793,11.496-35.322,11.496
				c-7.348,0-13.512-0.354-18.725-0.947V87.469z M721.701,158.113c2.607,0.475,6.4,0.594,10.43,0.594
				c22.049,0,34.021-12.328,34.021-33.901c0.119-18.846-10.549-30.818-32.361-30.818c-5.332,0-9.363,0.475-12.09,1.068V158.113z"/>
			<path fill="#838AA7" d="M790.328,87.469c4.504-0.95,11.613-1.66,18.844-1.66c10.314,0,16.949,1.778,21.93,5.808
				c4.148,3.082,6.639,7.824,6.639,14.106c0,7.704-5.098,14.46-13.516,17.541v0.238c7.586,1.896,16.479,8.179,16.479,20.031
				c0,6.874-2.729,12.091-6.758,16.001c-5.57,5.098-14.578,7.467-27.617,7.467c-7.113,0-12.563-0.473-16-0.947V87.469z
				 M800.639,120.183h9.363c10.906,0,17.305-5.689,17.305-13.394c0-9.365-7.109-13.038-17.541-13.038
				c-4.742,0-7.467,0.354-9.127,0.71V120.183z M800.639,158.468c2.016,0.357,4.979,0.476,8.652,0.476
				c10.668,0,20.508-3.913,20.508-15.528c0-10.905-9.365-15.41-20.627-15.41h-8.533V158.468z"/>
		</g>
	</g>
</g>
</svg>
