<?xml version="1.0" encoding="utf-8"?>
<!-- Generator: Adobe Illustrator 15.1.0, SVG Export Plug-In . SVG Version: 6.00 Build 0)  -->
<!DOCTYPE svg PUBLIC "-//W3C//DTD SVG 1.1//EN" "http://www.w3.org/Graphics/SVG/1.1/DTD/svg11.dtd">
<svg version="1.1" id="Layer_2" xmlns="http://www.w3.org/2000/svg" xmlns:xlink="http://www.w3.org/1999/xlink" x="0px" y="0px"
	 width="609.555px" height="1000px" viewBox="0 0 609.555 1000" enable-background="new 0 0 609.555 1000" xml:space="preserve">
<g>
	<g>
		<path fill="#838AA7" d="M9.337,557.712c5.979,20.553,13.911,40.265,23.809,58.8l-0.04,0.023l0.341,0.572
			c4.45,8.303,9.294,16.359,14.473,24.185L304.794,1000V733.475L9.337,557.712z"/>
		<path fill="#282138" d="M304.794,733.475V1000l256.875-358.708c5.176-7.825,10.022-15.882,14.473-24.185l0.34-0.572l-0.039-0.023
			c9.895-18.535,17.832-38.247,23.806-58.8L304.794,733.475z"/>
	</g>
	<polygon fill="#282138" points="304.776,0 304.776,387.292 476.391,285.198 	"/>
	<path fill="#282138" d="M502.419,328.454l-4.897-8.177L396.74,380.242l-91.946,143.716l-0.015,163.935L609.555,506.57
		L502.419,328.454z M381.535,559.258l86.699-134.769l34.045,60.231L381.535,559.258z"/>
	<polygon fill="#838AA7" points="304.779,687.893 0,506.57 107.139,328.454 112.036,320.277 212.794,380.225 304.741,523.944 	"/>
	<polygon fill="#838AA7" points="304.776,387.292 304.776,0 133.213,285.237 	"/>
</g>
</svg>
