<?xml version="1.0" encoding="utf-8"?>
<!-- Generator: Adobe Illustrator 15.1.0, SVG Export Plug-In . SVG Version: 6.00 Build 0)  -->
<!DOCTYPE svg PUBLIC "-//W3C//DTD SVG 1.1//EN" "http://www.w3.org/Graphics/SVG/1.1/DTD/svg11.dtd">
<svg version="1.1" id="Layer_2" xmlns="http://www.w3.org/2000/svg" xmlns:xlink="http://www.w3.org/1999/xlink" x="0px" y="0px"
	 width="465.715px" height="513.599px" viewBox="0 0 465.715 513.599" enable-background="new 0 0 465.715 513.599"
	 xml:space="preserve">
<g>
	<g>
		<g>
			<path fill="#838AA7" d="M29.25,486.191H7.291v20.367h24.474v6.119H0v-56.49h30.508v6.119H7.291v17.852H29.25V486.191z"/>
			<path fill="#838AA7" d="M49.614,460.463v11.648h10.561v5.617H49.614v21.873c0,5.027,1.425,7.879,5.531,7.879
				c1.928,0,3.354-0.252,4.274-0.502l0.337,5.529c-1.427,0.586-3.689,1.006-6.538,1.006c-3.437,0-6.204-1.088-7.963-3.1
				c-2.096-2.18-2.849-5.785-2.849-10.561v-22.125H36.12v-5.617h6.287v-9.721L49.614,460.463z"/>
			<path fill="#838AA7" d="M68.471,453.17h7.376v25.313h0.166c1.174-2.096,3.017-3.939,5.279-5.197
				c2.18-1.258,4.779-2.096,7.545-2.096c5.447,0,14.164,3.354,14.164,17.35v24.139h-7.375v-23.301
				c0-6.535-2.433-12.068-9.388-12.068c-4.777,0-8.55,3.354-9.891,7.375c-0.418,1.006-0.501,2.096-0.501,3.521v24.473h-7.376V453.17
				z"/>
			<path fill="#838AA7" d="M119.09,493.734c0.167,9.973,6.538,14.08,13.913,14.08c5.279,0,8.465-0.922,11.229-2.096l1.257,5.279
				c-2.598,1.176-7.038,2.516-13.492,2.516c-12.487,0-19.947-8.213-19.947-20.449s7.207-21.875,19.026-21.875
				c13.241,0,16.762,11.652,16.762,19.111c0,1.508-0.169,2.682-0.253,3.434H119.09z M140.713,488.455
				c0.085-4.693-1.927-11.984-10.225-11.984c-7.458,0-10.728,6.871-11.313,11.984H140.713z"/>
			<path fill="#838AA7" d="M156.971,484.768c0-4.779-0.084-8.885-0.336-12.656h6.454l0.251,7.963h0.335
				c1.843-5.447,6.285-8.885,11.231-8.885c0.837,0,1.425,0.084,2.096,0.252v6.955c-0.755-0.166-1.512-0.25-2.516-0.25
				c-5.196,0-8.884,3.938-9.89,9.471c-0.167,1.006-0.335,2.18-0.335,3.436v21.625h-7.291V484.768z"/>
			<path fill="#282138" d="M183.62,503.793c3.27,2.01,8.045,3.688,13.074,3.688c7.461,0,11.817-3.939,11.817-9.639
				c0-5.279-3.018-8.297-10.644-11.23c-9.22-3.27-14.918-8.045-14.918-16.008c0-8.801,7.292-15.338,18.27-15.338
				c5.784,0,9.974,1.342,12.489,2.766l-2.012,5.951c-1.845-1.006-5.615-2.68-10.728-2.68c-7.711,0-10.645,4.605-10.645,8.463
				c0,5.281,3.437,7.877,11.23,10.896c9.555,3.686,14.417,8.295,14.417,16.592c0,8.717-6.454,16.26-19.782,16.26
				c-5.446,0-11.396-1.592-14.413-3.604L183.62,503.793z"/>
			<path fill="#282138" d="M255.108,511.168c-1.926,1.006-6.203,2.346-11.649,2.346c-12.237,0-20.2-8.295-20.2-20.701
				c0-12.486,8.55-21.539,21.792-21.539c4.357,0,8.212,1.09,10.226,2.096l-1.678,5.699c-1.759-1.006-4.525-1.926-8.548-1.926
				c-9.302,0-14.331,6.871-14.331,15.336c0,9.387,6.034,15.17,14.078,15.17c4.191,0,6.958-1.09,9.054-2.012L255.108,511.168z"/>
			<path fill="#282138" d="M286.201,512.678l-0.586-5.113h-0.251c-2.264,3.186-6.622,6.033-12.407,6.033
				c-8.212,0-12.401-5.783-12.401-11.648c0-9.807,8.716-15.17,24.387-15.086v-0.838c0-3.354-0.921-9.387-9.217-9.387
				c-3.774,0-7.711,1.172-10.561,3.018l-1.677-4.863c3.352-2.178,8.212-3.604,13.325-3.604c12.405,0,15.422,8.467,15.422,16.596
				v15.17c0,3.52,0.166,6.955,0.671,9.723H286.201z M285.111,491.975c-8.046-0.166-17.181,1.258-17.181,9.137
				c0,4.777,3.186,7.041,6.957,7.041c5.28,0,8.63-3.355,9.805-6.789c0.25-0.756,0.419-1.592,0.419-2.35V491.975z"/>
			<path fill="#282138" d="M304.135,483.09c0-4.189-0.084-7.627-0.337-10.979h6.455l0.334,6.537h0.253
				c2.263-3.855,6.033-7.459,12.738-7.459c5.532,0,9.722,3.354,11.482,8.131h0.167c1.258-2.264,2.85-4.023,4.526-5.279
				c2.429-1.848,5.112-2.852,8.967-2.852c5.365,0,13.326,3.52,13.326,17.602v23.887h-7.206v-22.965
				c0-7.795-2.853-12.488-8.802-12.488c-4.189,0-7.458,3.102-8.716,6.707c-0.336,1.004-0.587,2.344-0.587,3.686v25.061h-7.208
				v-24.307c0-6.453-2.849-11.146-8.466-11.146c-4.61,0-7.96,3.688-9.133,7.375c-0.42,1.09-0.589,2.348-0.589,3.605v24.473h-7.206
				V483.09z"/>
			<path fill="#838AA7" d="M374.281,456.943c4.442-0.672,9.722-1.174,15.503-1.174c10.479,0,17.938,2.432,22.882,7.039
				c5.028,4.609,7.964,11.148,7.964,20.281c0,9.223-2.853,16.764-8.132,21.961c-5.28,5.279-13.996,8.127-24.977,8.127
				c-5.196,0-9.553-0.248-13.24-0.67V456.943z M381.572,506.893c1.843,0.336,4.526,0.42,7.375,0.42
				c15.59,0,24.055-8.717,24.055-23.971c0.084-13.324-7.459-21.791-22.882-21.791c-3.771,0-6.619,0.338-8.548,0.756V506.893z"/>
			<path fill="#838AA7" d="M430.096,456.943c3.186-0.672,8.214-1.174,13.324-1.174c7.294,0,11.986,1.258,15.506,4.107
				c2.933,2.178,4.695,5.531,4.695,9.973c0,5.447-3.605,10.225-9.558,12.404v0.168c5.365,1.34,11.651,5.783,11.651,14.164
				c0,4.859-1.93,8.547-4.776,11.313c-3.94,3.605-10.309,5.279-19.529,5.279c-5.028,0-8.882-0.332-11.313-0.67V456.943z
				 M437.387,480.074h6.62c7.712,0,12.236-4.023,12.236-9.471c0-6.621-5.028-9.219-12.402-9.219c-3.354,0-5.28,0.25-6.454,0.504
				V480.074z M437.387,507.146c1.425,0.25,3.521,0.334,6.118,0.334c7.543,0,14.5-2.768,14.5-10.979
				c0-7.711-6.621-10.896-14.585-10.896h-6.033V507.146z"/>
		</g>
	</g>
	<g>
		<g>
			<path fill="#838AA7" d="M108.471,234.811c2.517,8.651,5.855,16.952,10.023,24.756l-0.017,0.009l0.144,0.241
				c1.873,3.496,3.913,6.888,6.091,10.183l108.152,151.024V308.811L108.471,234.811z"/>
			<path fill="#282138" d="M232.864,308.811v112.213l108.15-151.024c2.18-3.295,4.221-6.687,6.094-10.183l0.143-0.241l-0.016-0.009
				c4.166-7.804,7.508-16.104,10.022-24.756L232.864,308.811z"/>
		</g>
		<polygon fill="#282138" points="232.856,0 232.856,163.059 305.11,120.074 		"/>
		<path fill="#282138" d="M316.07,138.286l-2.065-3.442l-42.429,25.247l-38.712,60.508l-0.006,69.021l128.317-76.34L316.07,138.286z
			 M265.174,235.461l36.504-56.741l14.334,25.359L265.174,235.461z"/>
		<polygon fill="#838AA7" points="232.858,289.619 104.539,213.279 149.646,138.286 151.71,134.844 194.131,160.084 
			232.843,220.594 		"/>
		<polygon fill="#838AA7" points="232.856,163.059 232.856,0 160.624,120.092 		"/>
	</g>
</g>
</svg>
